<svg version="1.1" id="Layer_1" xmlns="http://www.w3.org/2000/svg" xmlns:xlink="http://www.w3.org/1999/xlink" x="0px" y="0px"
	 width="100%" viewBox="0 0 496 496" enable-background="new 0 0 496 496" xml:space="preserve">
<path fill="#000000" opacity="1.000000" stroke="none" 
	d="
M160.193878,221.000046 
	C160.202469,274.493439 160.211594,327.486847 160.220078,380.480225 
	C160.221176,387.387421 160.219650,387.387421 153.365173,387.396515 
	C140.051666,387.414154 140.050079,387.414154 140.050400,373.857544 
	C140.052338,291.367828 140.054932,208.878098 140.058487,126.388367 
	C140.058548,124.888611 140.124786,123.386963 140.070068,121.889488 
	C139.940247,118.336487 141.577652,117.208885 145.143555,116.783844 
	C153.407562,115.798798 158.686478,118.735672 163.939224,125.493484 
	C209.836288,184.541412 256.192902,243.232071 302.393005,302.044525 
	C314.834076,317.881958 327.206451,333.773376 339.922882,350.039734 
	C341.113220,347.791168 340.650635,345.820404 340.651367,343.976440 
	C340.680176,270.985504 340.676086,197.994568 340.676788,125.003632 
	C340.676880,116.920242 340.678345,116.920242 348.486755,116.882973 
	C360.380127,116.826202 360.368469,116.826202 360.370056,128.635834 
	C360.381165,212.625351 360.397400,296.614868 360.411987,380.604401 
	C360.412323,382.583466 360.412018,384.562500 360.412018,387.224304 
	C355.052979,387.224304 350.122925,387.303864 345.197998,387.179169 
	C343.574554,387.138062 342.728699,385.641663 341.799957,384.459686 
	C311.851379,346.344055 281.914490,308.219269 251.941086,270.123230 
	C222.272385,232.414444 192.566818,194.734665 162.871201,157.047073 
	C162.371002,156.412277 161.791885,155.839645 160.194214,154.067078 
	C160.194214,177.092484 160.194214,198.796265 160.193878,221.000046 
z"/>
</svg>