<svg version="1.1" id="Layer_1" xmlns="http://www.w3.org/2000/svg" xmlns:xlink="http://www.w3.org/1999/xlink" x="0px" y="0px"
	 width="100%" viewBox="0 0 496 496" enable-background="new 0 0 496 496" xml:space="preserve">
<path fill="#000000" opacity="1.000000" stroke="none" 
	d="
M250.980042,118.647842 
	C290.022064,119.764687 323.953491,132.207870 351.046967,160.348770 
	C370.376831,180.425903 382.283478,204.335938 386.501099,232.138138 
	C390.192902,256.474152 389.082214,280.376251 380.484192,303.422333 
	C363.328705,349.405670 330.247253,378.233459 282.629730,389.011383 
	C246.741028,397.134552 211.259872,394.235229 178.276611,376.539032 
	C139.417526,355.690247 116.030052,323.134521 108.687271,279.579315 
	C103.504845,248.838730 107.382301,219.077560 121.842636,191.295288 
	C138.824036,158.669373 165.744583,137.476227 200.335342,125.705055 
	C216.597351,120.171135 233.381958,118.256737 250.980042,118.647842 
M191.180038,149.756424 
	C175.425629,157.886078 161.749054,168.507156 151.001648,182.768951 
	C129.851746,210.834808 123.303902,242.473602 128.512970,276.706665 
	C132.562286,303.318054 144.729797,326.150696 164.872482,343.885773 
	C196.158417,371.432159 233.169250,379.358917 273.515228,371.661499 
	C337.450439,359.463623 376.709686,300.605652 366.523834,235.705780 
	C361.666992,204.760071 346.819977,178.871796 321.205994,160.716110 
	C280.618896,131.947189 236.974243,130.172607 191.180038,149.756424 
z"/>
</svg>