<svg version="1.1" id="Layer_1" xmlns="http://www.w3.org/2000/svg" xmlns:xlink="http://www.w3.org/1999/xlink" x="0px" y="0px"
	 width="100%" viewBox="0 0 496 496" enable-background="new 0 0 496 496" xml:space="preserve">
<path fill="#000000" opacity="1.000000" stroke="none" 
	d="
M315.061768,152.082108 
	C321.447968,143.518448 327.743256,135.326706 333.726288,126.912971 
	C336.269775,123.336113 339.038422,121.307640 343.655487,121.812981 
	C348.532013,122.346703 353.525665,121.378662 358.305023,122.298386 
	C358.952301,124.759659 357.286194,125.774597 356.372345,127.011375 
	C326.677704,167.199677 296.981140,207.386749 267.140045,247.466217 
	C264.415039,251.126129 263.609680,253.416489 266.821442,257.678680 
	C298.901917,300.251190 330.662079,343.065186 362.468689,385.843689 
	C363.717316,387.523041 365.418579,389.030487 365.750793,392.141357 
	C358.429840,392.141357 351.231079,392.250519 344.040039,392.063477 
	C342.275299,392.017578 341.591766,389.943542 340.618713,388.636719 
	C311.666656,349.754456 282.736877,310.855560 253.791809,271.968048 
	C252.914719,270.789703 252.211823,269.381195 250.357315,268.902344 
	C246.922546,271.486572 244.919510,275.407074 242.379166,278.826904 
	C215.264908,315.328583 188.206970,351.872162 161.221329,388.468994 
	C159.133469,391.300446 156.855881,392.608459 153.297333,392.462860 
	C147.367767,392.220306 141.421051,392.396729 134.259506,392.396729 
	C139.496292,385.330505 143.982132,379.238251 148.508530,373.176270 
	C177.509827,334.336487 206.501541,295.489471 235.569717,256.699799 
	C237.474075,254.158569 237.605911,252.258926 235.671051,249.648727 
	C208.589569,213.114563 181.589233,176.520218 154.581314,139.931534 
	C150.473053,134.365906 146.426147,128.754990 141.640106,122.190041 
	C150.028961,122.190041 157.232590,122.002998 164.414627,122.314117 
	C166.346863,122.397804 167.384155,124.810760 168.572525,126.411438 
	C193.597183,160.118256 218.620300,193.826248 243.652069,227.527786 
	C246.013306,230.706818 248.430099,233.844559 251.375214,237.733093 
	C272.794647,208.923035 293.819580,180.643631 315.061768,152.082108 
z"/>
</svg>